<svg width="134" height="132" viewBox="0 0 134 132" fill="none" xmlns="http://www.w3.org/2000/svg">
<path d="M24.7878 0.00894062H28.6673C48.4863 0.00894062 64.5482 14.702 64.5482 32.822H79.7382C109.403 32.822 133.444 54.8124 133.444 81.9364C133.444 109.06 109.398 131.051 79.7382 131.051H24.7829V129.747C24.7829 112.402 40.159 98.3407 59.1257 98.3407H75.5844C85.4596 98.3407 93.4685 91.0166 93.4685 81.9857C93.4685 72.9548 85.4596 65.6307 75.5844 65.6307H59.1257C40.159 65.6307 24.7829 51.5692 24.7829 34.2242V0L24.7878 0.00894062Z" fill="#2B00D3"/>
<path d="M24.7832 57.5954C24.8029 71.052 35.5471 81.9949 48.9268 82.3336L49.5664 82.3414C35.8792 82.3414 24.7835 93.4375 24.7832 107.125C24.7829 93.4376 13.687 82.3417 0 82.3414V82.3405L0.000976562 82.3414C13.6757 82.341 24.7634 71.2656 24.7832 57.5954Z" fill="#2B00D3"/>
</svg>
