<svg width="259" height="38" viewBox="0 0 259 38" fill="none" xmlns="http://www.w3.org/2000/svg">
<path d="M6.11937 4.70292H7.07715C11.97 4.70292 15.9354 8.33034 15.9354 12.8038H19.6855C27.0091 12.8038 32.9444 18.2328 32.9444 24.9291C32.9444 31.6254 27.0079 37.0544 19.6855 37.0544H6.11816V36.7326C6.11816 32.4505 9.9142 28.979 14.5967 28.979H18.66C21.098 28.979 23.0752 27.1708 23.0752 24.9413C23.0752 22.7117 21.098 20.9035 18.66 20.9035H14.5967C9.9142 20.9035 6.11816 17.4321 6.11816 13.1499V4.70071L6.11937 4.70292Z" fill="#ECEAF3"/>
<path d="M6.11719 18.929C6.12676 22.1946 8.69557 24.8587 11.9229 25.0218L12.2363 25.0296C8.85738 25.0298 6.11719 27.7688 6.11719 31.1478C6.11719 27.7689 3.37886 25.0299 0 25.0296C3.37299 25.0295 6.10741 22.2998 6.11719 18.929Z" fill="#ECEAF3"/>
<path d="M46.9043 37.1375C44.3375 37.1375 42.1833 36.5722 40.4416 35.4416C38.7304 34.2805 37.447 32.8443 36.5915 31.1331C35.7359 29.422 35.2928 27.558 35.2623 25.5413C35.2623 23.5246 35.69 21.6606 36.5456 19.9495C37.4318 18.2383 38.7304 16.8174 40.4416 15.6868C42.1833 14.5257 44.3375 13.9451 46.9043 13.9451C48.8599 13.9451 50.5711 14.2965 52.0378 14.9993C53.5351 15.7021 54.7573 16.6341 55.7046 17.7952C56.6824 18.9564 57.3699 20.2856 57.7671 21.7828C58.1949 23.2801 58.3172 24.8232 58.1338 26.4122H40.8541C40.9458 27.0844 41.1444 27.7414 41.45 28.3831C41.7555 28.9942 42.1528 29.5442 42.6417 30.0331C43.1611 30.522 43.7722 30.9192 44.475 31.2248C45.1778 31.4998 45.9876 31.6373 46.9043 31.6373C48.2793 31.6373 49.3947 31.3776 50.2502 30.8581C51.1058 30.3387 51.7781 29.6512 52.267 28.7956H58.1338C57.8283 29.9262 57.3699 30.9956 56.7588 32.004C56.1476 33.0124 55.3685 33.8985 54.4212 34.6624C53.5045 35.4263 52.4197 36.0375 51.1669 36.4958C49.9141 36.9236 48.4932 37.1375 46.9043 37.1375ZM52.267 22.287C51.7781 21.4314 51.1058 20.7439 50.2502 20.2245C49.3947 19.705 48.2793 19.4453 46.9043 19.4453C45.6209 19.4453 44.5514 19.7203 43.6959 20.2703C42.8403 20.7898 42.168 21.462 41.6791 22.287H52.267ZM64.6295 8.71992C64.9961 8.26158 65.3628 7.92545 65.7295 7.71156C66.0962 7.46711 66.4323 7.36016 66.7379 7.39072C67.074 7.42127 67.3337 7.58933 67.5171 7.8949C67.731 8.16991 67.8379 8.61298 67.8379 9.22411V14.0826H73.7964V18.6661H68.0671V27.558C68.0671 29.2081 68.5407 30.2928 69.488 30.8123C70.4658 31.3318 71.9019 31.5609 73.7964 31.4998V37C72.4214 36.9389 71.0463 36.7861 69.6713 36.5417C68.3268 36.2666 67.1198 35.7777 66.0503 35.0749C65.0114 34.3721 64.1558 33.3791 63.4836 32.0957C62.8419 30.8123 62.5211 29.1164 62.5211 27.008V18.6661H60.4585C60.0307 18.6661 59.664 18.605 59.3585 18.4827C59.0529 18.3605 58.8543 18.1466 58.7626 17.8411C58.6709 17.5355 58.7168 17.1535 58.9001 16.6952C59.0835 16.2063 59.4501 15.5951 60.0002 14.8618L64.6295 8.71992ZM81.9966 8.71992C82.3632 8.26158 82.7299 7.92545 83.0966 7.71156C83.4633 7.46711 83.7994 7.36016 84.105 7.39072C84.4411 7.42127 84.7008 7.58933 84.8842 7.8949C85.0981 8.16991 85.205 8.61298 85.205 9.22411V14.0826H91.1635V18.6661H85.4342V27.558C85.4342 29.2081 85.9078 30.2928 86.8551 30.8123C87.8329 31.3318 89.269 31.5609 91.1635 31.4998V37C89.7885 36.9389 88.4134 36.7861 87.0384 36.5417C85.6939 36.2666 84.4869 35.7777 83.4174 35.0749C82.3785 34.3721 81.5229 33.3791 80.8507 32.0957C80.209 30.8123 79.8882 29.1164 79.8882 27.008V18.6661H77.8256C77.3978 18.6661 77.0311 18.605 76.7256 18.4827C76.42 18.3605 76.2214 18.1466 76.1297 17.8411C76.038 17.5355 76.0839 17.1535 76.2672 16.6952C76.4506 16.2063 76.8172 15.5951 77.3673 14.8618L81.9966 8.71992ZM104.153 37.1375C101.586 37.1375 99.4321 36.5722 97.6903 35.4416C95.9792 34.2805 94.6958 32.8443 93.8402 31.1331C92.9846 29.422 92.5416 27.558 92.511 25.5413C92.511 23.5246 92.9388 21.6606 93.7944 19.9495C94.6805 18.2383 95.9792 16.8174 97.6903 15.6868C99.4321 14.5257 101.586 13.9451 104.153 13.9451C106.109 13.9451 107.82 14.2965 109.287 14.9993C110.784 15.7021 112.006 16.6341 112.953 17.7952C113.931 18.9564 114.619 20.2856 115.016 21.7828C115.444 23.2801 115.566 24.8232 115.383 26.4122H98.1028C98.1945 27.0844 98.3931 27.7414 98.6987 28.3831C99.0043 28.9942 99.4015 29.5442 99.8904 30.0331C100.41 30.522 101.021 30.9192 101.724 31.2248C102.427 31.4998 103.236 31.6373 104.153 31.6373C105.528 31.6373 106.643 31.3776 107.499 30.8581C108.355 30.3387 109.027 29.6512 109.516 28.7956H115.383C115.077 29.9262 114.619 30.9956 114.008 32.004C113.396 33.0124 112.617 33.8985 111.67 34.6624C110.753 35.4263 109.668 36.0375 108.416 36.4958C107.163 36.9236 105.742 37.1375 104.153 37.1375ZM109.516 22.287C109.027 21.4314 108.355 20.7439 107.499 20.2245C106.643 19.705 105.528 19.4453 104.153 19.4453C102.87 19.4453 101.8 19.7203 100.945 20.2703C100.089 20.7898 99.4168 21.462 98.9279 22.287H109.516ZM123.061 17.566C124.1 16.191 125.444 15.2285 127.094 14.6784C128.775 14.0979 130.44 13.9451 132.09 14.2201V20.362C131.052 20.1175 130.028 20.0411 129.019 20.1328C128.042 20.1939 127.156 20.4384 126.361 20.8661C125.597 21.2939 124.971 21.8898 124.482 22.6537C123.993 23.4176 123.748 24.3801 123.748 25.5413V37H118.248V16.2827C118.248 15.641 118.386 15.1368 118.661 14.7701C118.936 14.4034 119.257 14.1743 119.623 14.0826C120.021 13.9909 120.433 14.0673 120.861 14.3118C121.289 14.5257 121.655 14.9229 121.961 15.5035L123.061 17.566ZM146.761 4.91563H152.261V37H146.761V4.91563ZM167.143 14.0826C168.671 14.0826 170 14.3729 171.131 14.9535C172.292 15.5035 173.254 16.2979 174.018 17.3369C174.782 18.3452 175.347 19.5522 175.714 20.9578C176.111 22.3634 176.31 23.8912 176.31 25.5413V37H170.81V25.5413C170.81 24.7774 170.733 24.0287 170.581 23.2954C170.428 22.562 170.153 21.9051 169.756 21.3245C169.358 20.7439 168.824 20.2703 168.151 19.9036C167.479 19.5369 166.608 19.3536 165.539 19.3536C164.897 19.3536 164.271 19.4911 163.66 19.7661C163.048 20.0411 162.514 20.4536 162.055 21.0037C161.597 21.5231 161.215 22.1648 160.909 22.9287C160.634 23.6926 160.497 24.5635 160.497 25.5413V37H154.997V16.2827C154.997 15.641 155.134 15.1368 155.409 14.7701C155.684 14.4034 156.005 14.1743 156.372 14.0826C156.769 13.9909 157.182 14.0673 157.609 14.3118C158.037 14.5257 158.404 14.9229 158.709 15.5035L159.809 17.566C160.604 16.5271 161.643 15.6868 162.926 15.0451C164.21 14.4034 165.615 14.0826 167.143 14.0826ZM184.314 20.7745C184.314 21.3551 184.635 21.7981 185.276 22.1037C185.918 22.4093 186.712 22.6843 187.66 22.9287C188.638 23.1732 189.692 23.4329 190.822 23.7079C191.953 23.9829 192.992 24.3954 193.939 24.9454C194.917 25.4955 195.727 26.2135 196.368 27.0997C197.01 27.9858 197.331 29.1622 197.331 30.629C197.331 31.729 197.086 32.7068 196.598 33.5624C196.109 34.418 195.436 35.1361 194.581 35.7166C193.756 36.2972 192.763 36.725 191.602 37C190.471 37.3056 189.249 37.4583 187.935 37.4583C185.399 37.4278 183.29 36.7555 181.61 35.4416C179.96 34.0971 178.966 32.3707 178.63 30.2623H183.764C184.161 31.2095 184.757 31.8818 185.551 32.279C186.346 32.6457 187.14 32.8443 187.935 32.8749C188.332 32.8749 188.76 32.8596 189.218 32.829C189.676 32.7679 190.089 32.661 190.456 32.5082C190.853 32.3554 191.174 32.1262 191.418 31.8207C191.693 31.5151 191.831 31.1179 191.831 30.629C191.831 29.9873 191.51 29.5136 190.868 29.2081C190.226 28.9025 189.417 28.6428 188.439 28.4289C187.461 28.1844 186.407 27.94 185.276 27.6955C184.176 27.4205 183.137 27.0233 182.16 26.5038C181.182 25.9844 180.372 25.2816 179.73 24.3954C179.089 23.4787 178.768 22.2717 178.768 20.7745C178.768 19.705 179.012 18.7425 179.501 17.8869C180.021 17.0007 180.708 16.2521 181.564 15.641C182.419 15.0298 183.428 14.5562 184.589 14.2201C185.781 13.884 187.033 13.7159 188.347 13.7159C190.731 13.7159 192.732 14.3576 194.352 15.641C196.002 16.9244 196.995 18.6355 197.331 20.7745H192.197C191.77 19.8272 191.22 19.1855 190.547 18.8494C189.875 18.5133 189.142 18.33 188.347 18.2994C187.156 18.2688 186.178 18.4827 185.414 18.9411C184.68 19.3689 184.314 19.98 184.314 20.7745ZM200.071 7.75739C200.071 6.90181 200.33 6.21429 200.85 5.69483C201.4 5.17537 202.118 4.91563 203.004 4.91563C203.86 4.91563 204.547 5.17537 205.067 5.69483C205.586 6.21429 205.846 6.90181 205.846 7.75739C205.846 8.61298 205.586 9.31578 205.067 9.8658C204.547 10.3853 203.86 10.645 203.004 10.645C202.118 10.645 201.4 10.3853 200.85 9.8658C200.33 9.31578 200.071 8.61298 200.071 7.75739ZM200.208 14.0826H205.708V37H200.208V14.0826ZM218.338 14.0826C220.385 14.0826 222.005 14.4493 223.196 15.1826C224.419 15.8854 225.32 16.6799 225.901 17.566V4.91563H231.401V25.5871C231.401 27.2983 231.126 28.8567 230.576 30.2623C230.026 31.6679 229.247 32.8749 228.238 33.8832C227.23 34.861 226.023 35.625 224.617 36.175C223.212 36.725 221.653 37 219.942 37C217.467 37 215.404 36.4347 213.754 35.3041C212.104 34.1735 210.852 32.7679 209.996 31.0873C209.14 29.3761 208.682 27.5275 208.621 25.5413C208.56 23.5551 208.881 21.7217 209.583 20.0411C210.286 18.33 211.371 16.9091 212.838 15.7785C214.304 14.6479 216.138 14.0826 218.338 14.0826ZM220.309 31.4998C221.073 31.4998 221.791 31.3623 222.463 31.0873C223.135 30.8123 223.716 30.4303 224.205 29.9414C224.724 29.422 225.137 28.7956 225.442 28.0622C225.748 27.3289 225.901 26.4886 225.901 25.5413C225.901 24.5635 225.733 23.7079 225.396 22.9745C225.091 22.2106 224.663 21.5689 224.113 21.0495C223.563 20.53 222.921 20.1328 222.188 19.8578C221.485 19.5828 220.737 19.4453 219.942 19.4453C218.567 19.4453 217.436 19.7508 216.55 20.362C215.664 20.9425 215.023 21.6759 214.625 22.562C214.228 23.4482 214.06 24.426 214.121 25.4955C214.182 26.5344 214.457 27.4969 214.946 28.3831C215.435 29.2692 216.123 30.0178 217.009 30.629C217.925 31.2095 219.025 31.4998 220.309 31.4998ZM245.775 37.1375C243.209 37.1375 241.054 36.5722 239.313 35.4416C237.602 34.2805 236.318 32.8443 235.463 31.1331C234.607 29.422 234.164 27.558 234.133 25.5413C234.133 23.5246 234.561 21.6606 235.417 19.9495C236.303 18.2383 237.602 16.8174 239.313 15.6868C241.054 14.5257 243.209 13.9451 245.775 13.9451C247.731 13.9451 249.442 14.2965 250.909 14.9993C252.406 15.7021 253.628 16.6341 254.576 17.7952C255.554 18.9564 256.241 20.2856 256.638 21.7828C257.066 23.2801 257.188 24.8232 257.005 26.4122H239.725C239.817 27.0844 240.016 27.7414 240.321 28.3831C240.627 28.9942 241.024 29.5442 241.513 30.0331C242.032 30.522 242.643 30.9192 243.346 31.2248C244.049 31.4998 244.859 31.6373 245.775 31.6373C247.15 31.6373 248.266 31.3776 249.121 30.8581C249.977 30.3387 250.649 29.6512 251.138 28.7956H257.005C256.699 29.9262 256.241 30.9956 255.63 32.004C255.019 33.0124 254.24 33.8985 253.292 34.6624C252.376 35.4263 251.291 36.0375 250.038 36.4958C248.785 36.9236 247.364 37.1375 245.775 37.1375ZM251.138 22.287C250.649 21.4314 249.977 20.7439 249.121 20.2245C248.266 19.705 247.15 19.4453 245.775 19.4453C244.492 19.4453 243.423 19.7203 242.567 20.2703C241.711 20.7898 241.039 21.462 240.55 22.287H251.138Z" fill="#ECEAF3"/>
</svg>
